#!OML:ASF E:\motion texture\Top Level 1\Subject 1\Session 1\male.ASF
:FULLY-SPECIFIED
:DEGREES
540
root 6.93192 17.5896 5.86442 335.092 -86.9234 -328.233
lowerback -0.0891264 -1.4889 0.338772
upperback -0.847204 -1.99926 3.02538
thorax -0.721622 -1.00648 2.92367
lowerneck -14.0799 -4.40539 -8.1518
upperneck -4.75195 -4.94591 7.64234
head 1.37419 -2.32241 3.71318
rclavicle 4.27387e-015 -7.95139e-015
rhumerus -69.9322 -51.546 -18.5906
rradius 14.6143
rwrist 18.2109
rhand 15.7909 -27.312
rfingers 7.12502
rthumb 40.5956 -52.3555
lclavicle 4.27387e-015 -7.95139e-015
lhumerus -32.5454 30.7283 68.5139
lradius 16.0939
lwrist -47.3375
lhand -10.5301 24.8953
lfingers 7.12502
lthumb 15.4731 54.2961
rfemur -34.4583 -4.17834 15.932
rtibia 20.6907
rfoot -0.704084 -19.5586
rtoes 13.1981
lfemur 0.976441 -5.00744 -21.4923
ltibia 22.598
lfoot -13.8555 -3.16104
ltoes -14.577
541
root 6.78302 17.5912 5.83677 337.204 -86.9845 -330.369
lowerback -0.138436 -1.45385 0.463265
upperback -0.912233 -1.95291 3.06978
thorax -0.76548 -0.984173 2.89919
lowerneck -13.8831 -4.42225 -8.22866
upperneck -4.96364 -4.96594 7.6153
head 1.27131 -2.3363 3.71962
rclavicle 6.16232e-015 7.95139e-015
rhumerus -65.4924 -52.2077 -23.8581
rradius 14.7421
rwrist 16.2144
rhand 16.2478 -27.406
rfingers 7.12502
rthumb 41.0249 -52.3145
lclavicle 6.16232e-015 7.95139e-015
lhumerus -31.1997 28.9132 70.3854
lradius 16.4099
lwrist -46.135
lhand -10.4039 24.6272
lfingers 7.12502
lthumb 15.5946 54.0185
rfemur -34.1956 -4.07638 16.1791
rtibia 20.6354
rfoot -0.519352 -19.4308
rtoes 13.6992
lfemur 0.892159 -4.99124 -21.2042
ltibia 23.4748
lfoot -13.3701 -3.37483
ltoes -15.2884
542
root 6.63354 17.5941 5.80868 339.507 -87.0649 -332.708
lowerback -0.187404 -1.41328 0.602281
upperback -0.979299 -1.8993 3.11743
thorax -0.812193 -0.958498 2.86994
lowerneck -13.6771 -4.43761 -8.30594
upperneck -5.17096 -4.98506 7.58863
head 1.1685 -2.34952 3.72672
rclavicle 1.09332e-015 0
rhumerus -60.4799 -52.4831 -29.6671
rradius 14.9268
rwrist 13.996
rhand 16.7159 -27.5135
rfingers 7.12502
rthumb 41.4643 -52.2805
lclavicle 1.09332e-015 0
lhumerus -29.9262 26.9572 72.1998
lradius 16.7784
lwrist -44.8628
lhand -10.2729 24.3348
lfingers 7.12502
lthumb 15.7208 53.7162
rfemur -33.9094 -3.98784 16.4648
rtibia 20.6406
rfoot -0.358101 -19.2713
rtoes 14.2149
lfemur 0.771886 -4.96409 -20.8969
ltibia 24.4082
lfoot -12.8259 -3.57964
ltoes -15.9602
543
root 6.48366 17.5984 5.78023 342.086 -87.1624 -335.333
lowerback -0.238555 -1.36771 0.757646
upperback -1.04777 -1.83923 3.1677
thorax -0.859674 -0.929913 2.83418
lowerneck -13.4614 -4.4509 -8.38159
upperneck -5.37563 -5.00286 7.56162
head 1.06492 -2.36195 3.73387
rclavicle -2.38542e-015 -2.8625e-014
rhumerus -55.0228 -52.2858 -35.8748
rradius 15.1795
rwrist 11.5588
rhand 17.1908 -27.6336
rfingers 7.12502
rthumb 41.9097 -52.2538
lclavicle -2.38542e-015 -2.8625e-014
lhumerus -28.7318 24.8755 73.9424
lradius 17.2035
lwrist -43.5314
lhand -10.1382 24.0222
lfingers 7.12502
lthumb 15.8505 53.3934
rfemur -33.6 -3.9127 16.7873
rtibia 20.6972
rfoot -0.219086 -19.082
rtoes 14.7287
lfemur 0.611357 -4.92531 -20.5701
ltibia 25.3986
lfoot -12.2222 -3.76865
ltoes -16.5882
544
root 6.33331 17.6041 5.75151 344.998 -87.2763 -338.301
lowerback -0.290312 -1.31639 0.929102
upperback -1.11788 -1.77168 3.2203
thorax -0.909028 -0.897921 2.79181
lowerneck -13.2371 -4.46271 -8.45662
upperneck -5.57625 -5.0199 7.53592
head 0.961421 -2.3738 3.74181
rclavicle -3.37934e-015 7.95139e-015
rhumerus -49.3488 -51.5743 -42.2244
rradius 15.5096
rwrist 8.95143
rhand 17.6698 -27.7575
rfingers 7.12502
rthumb 42.3585 -52.2263
lclavicle -3.37934e-015 7.95139e-015
lhumerus -27.6214 22.6959 75.5989
lradius 17.6864
lwrist -42.16
lhand -9.99788 23.699
lfingers 7.12502
lthumb 15.9857 53.0595
rfemur -33.2647 -3.8478 17.1431
rtibia 20.7967
rfoot -0.105251 -18.8645
rtoes 15.2408
lfemur 0.41316 -4.872 -20.2251
ltibia 26.4402
lfoot -11.5621 -3.93952
ltoes -17.1673
